<svg width="25" height="25" viewBox="0 0 25 25" fill="none" xmlns="http://www.w3.org/2000/svg">
<path d="M12.9795 19.744C10.8675 19.744 9.28883 19.0933 8.2435 17.792C7.19817 16.4693 6.6755 14.7307 6.6755 12.576C6.6755 11.1893 6.92083 9.96267 7.4115 8.896C7.90217 7.808 8.6275 6.96533 9.5875 6.368C10.5475 5.74933 11.7208 5.44 13.1075 5.44C13.7688 5.44 14.4408 5.52533 15.1235 5.696C15.8062 5.86667 16.4462 6.10133 17.0435 6.4L16.1155 8.352C15.5822 8.07467 15.0595 7.872 14.5475 7.744C14.0568 7.59467 13.5875 7.52 13.1395 7.52C11.8808 7.52 10.8995 7.968 10.1955 8.864C9.51283 9.76 9.1715 10.9973 9.1715 12.576C9.1715 13.664 9.2995 14.592 9.5555 15.36C9.83283 16.1067 10.2595 16.6827 10.8355 17.088C11.4115 17.472 12.1688 17.664 13.1075 17.664C13.5982 17.664 14.1422 17.6 14.7395 17.472C15.3582 17.3227 15.9342 17.1413 16.4675 16.928V18.976C15.9555 19.1893 15.4328 19.3707 14.8995 19.52C14.3662 19.6693 13.7262 19.744 12.9795 19.744ZM12.4995 24.32C10.7928 24.32 9.22483 24.032 7.7955 23.456C6.36617 22.88 5.11817 22.0693 4.0515 21.024C3.00617 19.9573 2.1955 18.7093 1.6195 17.28C1.0435 15.8507 0.7555 14.2827 0.7555 12.576C0.7555 10.8693 1.0435 9.30133 1.6195 7.872C2.1955 6.44267 3.00617 5.20533 4.0515 4.16C5.11817 3.09333 6.36617 2.272 7.7955 1.696C9.22483 1.12 10.7928 0.831999 12.4995 0.831999C14.1208 0.831999 15.6355 1.12 17.0435 1.696C18.4728 2.272 19.7208 3.09333 20.7875 4.16C21.8755 5.20533 22.7182 6.44267 23.3155 7.872C23.9342 9.30133 24.2435 10.8693 24.2435 12.576C24.2435 14.2827 23.9555 15.8507 23.3795 17.28C22.8035 18.7093 21.9822 19.9573 20.9155 21.024C19.8702 22.0693 18.6328 22.88 17.2035 23.456C15.7742 24.032 14.2062 24.32 12.4995 24.32ZM12.4995 22.624C13.8648 22.624 15.1448 22.3787 16.3395 21.888C17.5342 21.3973 18.5902 20.704 19.5075 19.808C20.4248 18.8907 21.1395 17.824 21.6515 16.608C22.1635 15.392 22.4195 14.048 22.4195 12.576C22.4195 11.1893 22.1742 9.888 21.6835 8.672C21.1928 7.456 20.4995 6.38933 19.6035 5.472C18.7288 4.55467 17.6835 3.84 16.4675 3.328C15.2728 2.79467 13.9502 2.528 12.4995 2.528C11.0488 2.528 9.7155 2.77333 8.4995 3.264C7.2835 3.75467 6.2275 4.45867 5.3315 5.376C4.45683 6.272 3.77417 7.328 3.2835 8.544C2.79283 9.76 2.5475 11.104 2.5475 12.576C2.5475 13.9627 2.79283 15.264 3.2835 16.48C3.77417 17.696 4.45683 18.7627 5.3315 19.68C6.2275 20.5973 7.2835 21.3227 8.4995 21.856C9.7155 22.368 11.0488 22.624 12.4995 22.624Z" fill="#1F392C"/>
</svg>
