<svg width="32" height="32" viewBox="0 0 32 32" fill="none" xmlns="http://www.w3.org/2000/svg">
<g clip-path="url(#clip0_64_122)">
<path d="M15.624 12.8561C15.8596 12.7523 16.128 12.7522 16.3637 12.8558L30.1376 18.9105C31.5206 19.5184 31.6188 21.4431 30.305 22.1887L16.4474 30.053C16.1661 30.2127 15.8215 30.2125 15.5403 30.0526L1.71252 22.1877C0.40071 21.4416 0.498989 19.5195 1.88006 18.911L15.624 12.8561Z" fill="#FFADF2" fill-opacity="0.5"/>
<path d="M15.624 7.80623C15.8596 7.70243 16.128 7.70232 16.3637 7.80592L30.1376 13.8607C31.5206 14.4686 31.6188 16.3932 30.305 17.1388L16.4474 25.0032C16.1661 25.1629 15.8215 25.1627 15.5403 25.0028L1.71252 17.1379C0.40071 16.3918 0.498989 14.4696 1.88006 13.8612L15.624 7.80623Z" fill="#FFADF2" fill-opacity="0.8"/>
<path d="M15.624 3.67433C15.8596 3.57053 16.128 3.57042 16.3637 3.67403L30.1376 9.72876C31.5206 10.3367 31.6188 12.2613 30.305 13.0069L16.4474 20.8713C16.1661 21.031 15.8215 21.0308 15.5403 20.8709L1.71252 13.006C0.40071 12.2599 0.498989 10.3377 1.88006 9.72928L15.624 3.67433Z" fill="#FF60E6"/>
</g>
<defs>
<clipPath id="clip0_64_122">
<rect width="32.0001" height="32" fill="white"/>
</clipPath>
</defs>
</svg>
